<svg viewBox="0 0 18 18" fill="none" xmlns="http://www.w3.org/2000/svg">
<path fill-rule="evenodd" clip-rule="evenodd" d="M16.6653 2.95098C17.1116 2.50467 17.1116 1.78105 16.6653 1.33474C16.219 0.888422 15.4953 0.888422 15.049 1.33474L9 7.38376L2.95098 1.33474C2.50467 0.888422 1.78105 0.888422 1.33474 1.33474C0.888422 1.78105 0.888422 2.50467 1.33474 2.95098L7.38376 9L1.33474 15.049C0.888422 15.4953 0.888422 16.219 1.33474 16.6653C1.78105 17.1116 2.50467 17.1116 2.95098 16.6653L9 10.6162L15.049 16.6653C15.4953 17.1116 16.219 17.1116 16.6653 16.6653C17.1116 16.219 17.1116 15.4953 16.6653 15.049L10.6162 9L16.6653 2.95098Z" fill="white"/>
<path d="M16.6653 1.33474L16.3117 1.68829L16.3117 1.68829L16.6653 1.33474ZM16.6653 2.95098L16.3117 2.59743L16.3117 2.59743L16.6653 2.95098ZM15.049 1.33474L15.4026 1.68829V1.68829L15.049 1.33474ZM9 7.38376L8.64645 7.73731C8.74021 7.83108 8.86739 7.88376 9 7.88376C9.13261 7.88376 9.25979 7.83108 9.35355 7.73731L9 7.38376ZM2.95098 1.33474L3.30453 0.981182V0.981182L2.95098 1.33474ZM1.33474 1.33474L1.68829 1.68829L1.68829 1.68829L1.33474 1.33474ZM1.33474 2.95098L0.981182 3.30453H0.981182L1.33474 2.95098ZM7.38376 9L7.73731 9.35355C7.83108 9.25979 7.88376 9.13261 7.88376 9C7.88376 8.86739 7.83108 8.74021 7.73731 8.64645L7.38376 9ZM1.33474 15.049L1.68829 15.4026H1.68829L1.33474 15.049ZM1.33474 16.6653L1.68829 16.3117L1.68829 16.3117L1.33474 16.6653ZM2.95098 16.6653L2.59743 16.3117L2.59743 16.3117L2.95098 16.6653ZM9 10.6162L9.35355 10.2627C9.15829 10.0674 8.84171 10.0674 8.64645 10.2627L9 10.6162ZM15.049 16.6653L15.4026 16.3117V16.3117L15.049 16.6653ZM16.6653 16.6653L16.3117 16.3117L16.3117 16.3117L16.6653 16.6653ZM16.6653 15.049L16.3117 15.4026H16.3117L16.6653 15.049ZM10.6162 9L10.2627 8.64645C10.0674 8.84171 10.0674 9.15829 10.2627 9.35355L10.6162 9ZM16.3117 1.68829C16.5628 1.93934 16.5628 2.34637 16.3117 2.59743L17.0188 3.30453C17.6604 2.66296 17.6604 1.62276 17.0188 0.981181L16.3117 1.68829ZM15.4026 1.68829C15.6536 1.43724 16.0607 1.43724 16.3117 1.68829L17.0188 0.981182C16.3772 0.339606 15.337 0.339606 14.6955 0.981182L15.4026 1.68829ZM9.35355 7.73731L15.4026 1.68829L14.6955 0.981182L8.64645 7.0302L9.35355 7.73731ZM2.59743 1.68829L8.64645 7.73731L9.35355 7.0302L3.30453 0.981182L2.59743 1.68829ZM1.68829 1.68829C1.93934 1.43724 2.34637 1.43724 2.59743 1.68829L3.30453 0.981182C2.66296 0.339606 1.62276 0.339606 0.981182 0.981182L1.68829 1.68829ZM1.68829 2.59743C1.43724 2.34637 1.43724 1.93934 1.68829 1.68829L0.981182 0.981182C0.339606 1.62276 0.339606 2.66296 0.981182 3.30453L1.68829 2.59743ZM7.73731 8.64645L1.68829 2.59743L0.981182 3.30453L7.0302 9.35355L7.73731 8.64645ZM1.68829 15.4026L7.73731 9.35355L7.0302 8.64645L0.981182 14.6955L1.68829 15.4026ZM1.68829 16.3117C1.43724 16.0607 1.43724 15.6536 1.68829 15.4026L0.981182 14.6955C0.339606 15.337 0.339606 16.3772 0.981182 17.0188L1.68829 16.3117ZM2.59743 16.3117C2.34637 16.5628 1.93934 16.5628 1.68829 16.3117L0.981181 17.0188C1.62276 17.6604 2.66296 17.6604 3.30453 17.0188L2.59743 16.3117ZM8.64645 10.2627L2.59743 16.3117L3.30453 17.0188L9.35355 10.9698L8.64645 10.2627ZM15.4026 16.3117L9.35355 10.2627L8.64645 10.9698L14.6955 17.0188L15.4026 16.3117ZM16.3117 16.3117C16.0607 16.5628 15.6536 16.5628 15.4026 16.3117L14.6955 17.0188C15.337 17.6604 16.3772 17.6604 17.0188 17.0188L16.3117 16.3117ZM16.3117 15.4026C16.5628 15.6536 16.5628 16.0607 16.3117 16.3117L17.0188 17.0188C17.6604 16.3772 17.6604 15.337 17.0188 14.6955L16.3117 15.4026ZM10.2627 9.35355L16.3117 15.4026L17.0188 14.6955L10.9698 8.64645L10.2627 9.35355ZM16.3117 2.59743L10.2627 8.64645L10.9698 9.35355L17.0188 3.30453L16.3117 2.59743Z" fill="#3D227D"/>
</svg>
