<svg  viewBox="0 0 48 48" fill="none" xmlns="http://www.w3.org/2000/svg">
<path d="M29.8406 26.2032V11.3946C29.8406 10.2877 28.9194 9.3877 27.7865 9.3877C26.6535 9.3877 25.7323 10.2877 25.7323 11.3946V22.1842M25.7323 24.1963V20.1774C25.7323 19.0705 24.8112 18.1705 23.6782 18.1705C22.5453 18.1705 21.6241 19.0705 21.6241 20.1774V23.3894M21.6188 24.5946V21.3825C21.6188 20.2756 20.6976 19.3756 19.5647 19.3756C18.4318 19.3756 17.5106 20.2756 17.5106 21.3825V23.7929M31.4871 38.2498L33.0012 33.5687C33.6312 31.6136 33.9541 29.5705 33.9541 27.5222V23.3894C33.9541 22.2825 33.0329 21.3825 31.9 21.3825C30.7671 21.3825 29.8459 22.2825 29.8459 23.3894V28.2101M17.5106 24.998V22.5877C17.5106 21.4808 16.5894 20.5808 15.4565 20.5808C14.3235 20.5808 13.4023 21.4808 13.4023 22.5877V27.5274C13.4023 29.5808 13.7253 31.6187 14.3553 33.5739L15.8694 38.2549M16.2559 13.0549H22.0794M18.3735 10.986L16.2559 13.0549L18.3735 15.1239M39.2641 13.0549H33.4406M37.1465 15.1239L39.2641 13.0549L37.1465 10.986" stroke="white"  stroke-linecap="round" stroke-linejoin="round"/>
</svg>
