<svg  viewBox="0 0 48 48" fill="none" xmlns="http://www.w3.org/2000/svg">
<path d="M26.6348 30.2232L36.2439 20.8396C37.0499 20.0525 37.0499 18.7838 36.2439 17.9966C35.4378 17.2095 34.1386 17.2095 33.3325 17.9966L26.6348 24.5371" stroke="white" stroke-linecap="round" stroke-linejoin="round"/>
<path d="M25.1815 25.9561L28.0929 23.1131C28.899 22.3259 28.899 21.0572 28.0929 20.27C27.2868 19.4829 25.9876 19.4829 25.1815 20.27L22.8535 22.5434" stroke="white" stroke-linecap="round" stroke-linejoin="round"/>
<path d="M21.9784 23.3982L24.3065 21.1248C25.1125 20.3377 25.1125 19.0689 24.3065 18.2818C23.5004 17.4946 22.2011 17.4946 21.3951 18.2818L19.6504 19.9855" stroke="white" stroke-linecap="round" stroke-linejoin="round"/>
<path d="M19.0684 39.8919L23.5335 37.6236C25.4002 36.676 27.1078 35.4538 28.5926 34.0038L31.5888 31.0779C32.3949 30.2908 32.3949 29.022 31.5888 28.2349C30.7828 27.4477 29.4835 27.4477 28.6775 28.2349L25.1828 31.6476" stroke="white" stroke-linecap="round" stroke-linejoin="round"/>
<path d="M18.7758 20.8398L20.5205 19.136C21.3265 18.3489 21.3265 17.0801 20.5205 16.293C19.7144 15.5059 18.4152 15.5059 17.6091 16.293L14.0295 19.7885C12.5447 21.2385 11.2932 22.906 10.3227 24.7289L8 29.0841" stroke="white" stroke-linecap="round" stroke-linejoin="round"/>
<path d="M41.8551 27.3649L38.4824 24.0713" stroke="white" stroke-linecap="round" stroke-linejoin="round"/>
<path d="M41.855 24.439V27.3649H38.8535" stroke="white" stroke-linecap="round" stroke-linejoin="round"/>
<path d="M27.2188 12L30.5915 15.2936" stroke="white" stroke-linecap="round" stroke-linejoin="round"/>
<path d="M27.2188 14.9311V12H30.2203" stroke="white" stroke-linecap="round" stroke-linejoin="round"/>
<path d="M41.8551 12L38.4824 15.2936" stroke="white" stroke-linecap="round" stroke-linejoin="round"/>
<path d="M38.8535 12H41.855V14.9311" stroke="white" stroke-linecap="round" stroke-linejoin="round"/>
</svg>
