<svg  viewBox="0 0 48 48" fill="none" xmlns="http://www.w3.org/2000/svg">
<path d="M15.2363 12.9917C15.2363 9.91502 17.7049 7.41797 20.7465 7.41797C23.7882 7.41797 26.2567 9.91502 26.2567 12.9917" stroke="white" stroke-linecap="round" stroke-linejoin="round"/>
<path d="M18.7031 32.3215V27.7622V12.7019C18.7031 11.5592 19.6178 10.6284 20.7529 10.6284C21.8825 10.6284 22.8027 11.5537 22.8027 12.7019V23.6209" stroke="white" stroke-linecap="round" stroke-linejoin="round"/>
<path d="M22.7969 25.6942V21.5529C22.7969 20.4103 23.7116 19.4795 24.8467 19.4795C25.9763 19.4795 26.8965 20.4047 26.8965 21.5529V24.8693" stroke="white" stroke-linecap="round" stroke-linejoin="round"/>
<path d="M26.8906 26.1066V22.7902C26.8906 21.6476 27.8053 20.7168 28.9404 20.7168C30.07 20.7168 30.9902 21.642 30.9902 22.7902V25.2761" stroke="white" stroke-linecap="round" stroke-linejoin="round"/>
<path d="M30.9902 26.5193V24.0334C30.9902 22.8908 31.9049 21.96 33.04 21.96C34.1696 21.96 35.0898 22.8852 35.0898 24.0334V29.1278C35.0898 31.2459 34.7702 33.3472 34.1366 35.3649L32.6323 40.1918" stroke="white" stroke-linecap="round" stroke-linejoin="round"/>
<path d="M18.7029 32.3216L12.9117 26.4636C12.1127 25.6554 10.8178 25.6554 10.0133 26.4636C9.21432 27.2718 9.21432 28.5816 10.0133 29.3954L15.8045 35.2534L20.6921 40.1973" stroke="white" stroke-linecap="round" stroke-linejoin="round"/>
</svg>
