<svg  viewBox="0 0 48 48" fill="none" xmlns="http://www.w3.org/2000/svg">
<path d="M31.5318 7.43945L27.3594 11.5839" stroke="white" stroke-linecap="round" stroke-linejoin="round"/>
<path d="M31.5316 10.7574V7.43945H28.1973" stroke="white" stroke-linecap="round" stroke-linejoin="round"/>
<path d="M6.44336 32.3588L10.6158 28.2144" stroke="white" stroke-linecap="round" stroke-linejoin="round"/>
<path d="M6.44336 29.0469V32.3589H9.78369" stroke="white" stroke-linecap="round" stroke-linejoin="round"/>
<path d="M28.1738 25.2073V21.438C28.1738 20.2363 29.1535 19.2573 30.3692 19.2573C31.5791 19.2573 32.5646 20.2304 32.5646 21.438V24.9259" stroke="white" stroke-linecap="round" stroke-linejoin="round"/>
<path d="M32.5586 25.0551V22.1533C32.5586 20.9516 33.5383 19.9727 34.754 19.9727C35.9638 19.9727 36.9494 20.9458 36.9494 22.1533V24.1816" stroke="white" stroke-linecap="round" stroke-linejoin="round"/>
<path d="M36.9492 25.4888V23.4605C36.9492 22.2588 37.9289 21.2798 39.1446 21.2798C40.3545 21.2798 41.34 22.2529 41.34 23.4605V28.8184C41.34 31.046 40.9977 33.256 40.3191 35.3781L38.7079 40.4546" stroke="white" stroke-linecap="round" stroke-linejoin="round"/>
<path d="M28.1738 22.4053V23.4663" stroke="white" stroke-linecap="round" stroke-linejoin="round"/>
<path d="M28.1738 25.307V22.4053" stroke="white" stroke-linecap="round" stroke-linejoin="round"/>
<path d="M28.1725 23.5779V20.5531L23.6459 15.1952C22.8669 14.2748 21.4859 14.1517 20.5534 14.9255C19.6269 15.6993 19.5029 17.071 20.282 17.9972L23.7816 22.1417V29.6569" stroke="white" stroke-linecap="round" stroke-linejoin="round"/>
<path d="M23.7894 29.6975L18.4838 23.4193C17.7048 22.4989 16.3238 22.3758 15.3913 23.1496C14.4648 23.9234 14.3408 25.2951 15.1198 26.2213L27.1474 40.4603" stroke="white" stroke-linecap="round" stroke-linejoin="round"/>
</svg>
